<?xml version="1.0" standalone="no"?>
<!DOCTYPE svg PUBLIC "-//W3C//DTD SVG 20010904//EN"
 "http://www.w3.org/TR/2001/REC-SVG-20010904/DTD/svg10.dtd">
<svg version="1.0" xmlns="http://www.w3.org/2000/svg"
 width="1280.000000pt" height="853.000000pt" viewBox="0 0 1280.000000 853.000000"
 preserveAspectRatio="xMidYMid meet">
<metadata>
Created by potrace 1.16, written by Peter Selinger 2001-2019
</metadata>
<g transform="translate(0.000000,853.000000) scale(0.100000,-0.100000)"
fill="#000000" stroke="none">
<path d="M0 4265 l0 -4265 6400 0 6400 0 0 4265 0 4265 -6400 0 -6400 0 0
-4265z m7128 3227 c2 -6 -5 -15 -15 -20 -11 -4 -40 -20 -66 -37 -46 -29 -47
-31 -47 -81 0 -45 3 -52 28 -63 50 -24 57 -29 55 -39 -4 -15 24 -22 35 -9 6 7
12 28 15 47 2 23 4 13 5 -27 1 -34 -2 -65 -8 -68 -5 -3 -10 -1 -10 6 0 7 -3 9
-6 6 -4 -4 -33 16 -65 44 l-59 51 -74 -15 c-291 -59 -486 -255 -545 -544 -21
-101 -21 -110 -18 -2519 l2 -2419 24 -75 c13 -41 29 -82 36 -90 7 -8 16 -25
20 -38 3 -12 11 -20 16 -17 5 4 12 -2 16 -11 5 -14 9 -11 19 17 l13 34 -2 -30
c-1 -21 3 -30 13 -30 8 0 14 8 14 17 -1 10 3 18 9 18 5 0 2 9 -8 20 -10 12
-20 28 -21 38 -1 9 -4 31 -8 47 -4 17 2 9 14 -20 80 -188 254 -301 505 -328
91 -10 110 -15 113 -30 2 -10 0 -16 -5 -15 -5 2 -35 -15 -66 -36 -53 -37 -57
-42 -58 -80 -1 -23 -1 -48 0 -57 2 -14 -27 -17 -251 -22 -381 -9 -1659 -7
-1654 2 3 5 8 31 12 58 l6 49 -63 47 c-45 33 -65 43 -71 34 -11 -17 -10 1 2
22 7 14 27 20 92 26 150 13 277 71 364 168 51 57 67 83 106 177 15 36 27 57
27 47 1 -10 -5 -32 -12 -50 -14 -32 -12 -107 3 -107 4 0 13 7 20 15 10 13 15
13 21 3 4 -7 11 -9 15 -5 4 3 1 13 -5 21 -16 19 -6 37 16 29 12 -5 15 -2 10
10 -3 9 1 23 9 32 8 8 12 19 9 25 -3 5 -2 10 3 10 28 0 31 192 34 2535 2 2198
1 2396 -14 2470 -32 151 -97 274 -196 369 -103 99 -176 139 -320 176 -78 20
-85 21 -108 5 -14 -9 -28 -15 -30 -12 -2 2 7 10 21 17 22 12 25 20 25 65 0 49
-2 52 -38 73 -53 29 -90 35 -95 14 -3 -9 -5 0 -6 20 -1 21 4 39 12 41 6 3 500
5 1096 4 858 -2 1085 -5 1089 -15z m-3168 -466 c47 -8 105 -19 130 -25 169
-39 390 -160 466 -255 27 -34 33 -36 86 -36 156 0 349 -72 477 -179 46 -38
119 -144 144 -209 19 -48 22 -76 7 -67 -6 4 -10 -16 -10 -52 l0 -58 50 -34
c57 -39 93 -82 121 -147 20 -43 20 -49 6 -119 -9 -41 -23 -91 -33 -111 -29
-62 -92 -119 -157 -143 -171 -63 -345 25 -393 198 -25 90 -24 88 -34 71 -16
-25 -12 16 7 84 14 49 27 70 77 120 68 68 117 91 223 102 56 6 63 9 74 36 9
23 9 38 -1 71 -53 180 -234 316 -465 352 -44 6 -83 10 -86 9 -4 -2 8 -34 26
-71 42 -85 52 -135 32 -154 -8 -8 -17 -32 -21 -54 -12 -66 -58 -144 -113 -195
-63 -58 -166 -95 -241 -88 -160 17 -276 124 -304 279 -7 42 -15 59 -25 59 -13
0 -15 9 -9 46 9 69 38 123 94 181 60 60 143 103 217 110 45 5 60 1 104 -22 28
-15 59 -37 68 -48 18 -19 17 -19 -27 -12 -208 37 -370 -74 -370 -253 0 -34 4
-62 9 -62 4 0 23 -29 40 -65 37 -74 86 -114 165 -134 120 -30 262 52 298 171
6 21 17 38 23 38 17 0 27 59 19 110 -13 80 -134 234 -248 314 -170 121 -371
176 -639 176 -382 0 -773 -162 -1023 -422 -90 -94 -148 -175 -188 -262 -30
-66 -45 -123 -29 -113 20 13 185 -14 275 -44 84 -28 96 -29 135 -18 24 6 46
16 49 20 3 5 21 9 40 9 19 0 34 1 34 3 0 1 -9 20 -20 42 -11 21 -23 61 -26 88
-4 31 -10 44 -15 36 -12 -20 -23 15 -14 49 22 88 82 159 172 204 91 45 175 45
266 0 63 -31 117 -82 145 -137 15 -31 26 -109 14 -101 -6 3 -13 -8 -17 -26
-17 -93 -30 -122 -77 -173 -54 -60 -128 -95 -198 -95 -50 0 -126 25 -167 56
l-31 24 -57 -35 c-80 -48 -130 -53 -224 -25 -156 47 -191 52 -306 47 -243 -12
-469 -120 -671 -322 -155 -155 -274 -390 -276 -544 0 -56 9 -94 22 -86 4 3 11
-19 14 -48 l7 -54 92 1 c81 0 99 -3 148 -27 120 -58 197 -157 205 -265 2 -31
1 -51 -2 -44 -12 25 -21 11 -27 -40 -13 -105 -92 -215 -188 -261 -35 -17 -64
-21 -139 -21 -109 -1 -137 9 -220 80 -28 24 -55 44 -60 44 -4 0 -24 -17 -44
-37 -48 -49 -104 -165 -107 -223 -4 -75 0 -122 11 -115 6 3 10 -3 10 -15 0
-11 4 -28 10 -38 5 -9 23 -51 40 -92 50 -126 156 -238 287 -303 99 -50 187
-69 326 -71 102 -1 130 -4 137 -16 15 -24 7 -32 -35 -38 -53 -8 -228 -8 -290
0 -57 7 -171 48 -224 80 -149 90 -251 219 -306 383 -9 28 -19 94 -22 147 -3
54 -10 95 -14 92 -16 -10 -9 35 17 105 26 69 85 150 125 172 14 7 25 6 41 -6
13 -8 26 -15 30 -15 3 0 -2 30 -13 67 -10 38 -19 87 -19 109 0 28 -5 44 -15
48 -19 7 -13 40 21 112 22 47 83 114 128 139 15 9 16 16 7 55 -6 25 -11 79
-11 120 0 41 -5 91 -10 111 -18 64 26 188 123 349 36 59 86 120 167 201 157
159 280 236 473 298 53 17 106 31 118 31 34 0 57 18 64 52 21 95 133 272 247
389 108 111 210 185 360 264 179 93 375 154 573 178 76 10 288 5 365 -7z
m-200 -1249 c282 -68 508 -192 700 -387 l85 -86 75 33 c124 53 192 68 320 67
120 0 193 -15 275 -56 58 -30 131 -90 169 -140 39 -51 85 -176 69 -186 -6 -4
-16 -36 -23 -71 -16 -91 -61 -172 -97 -176 -26 -3 -57 -17 -66 -29 -5 -6 -5 0
-1 14 4 14 19 41 35 60 15 19 33 56 40 83 7 30 17 47 27 47 12 0 14 11 9 65
-9 100 -48 164 -138 230 -162 119 -431 114 -645 -11 l-45 -26 41 -20 c40 -20
75 -59 160 -179 75 -106 263 -353 287 -377 7 -7 18 -21 25 -31 7 -9 33 -31 58
-48 121 -84 250 -254 265 -351 2 -15 8 -53 13 -86 9 -59 3 -121 -12 -121 -4 0
-10 22 -12 49 -2 28 -11 70 -19 95 -8 26 -15 50 -14 55 0 5 -3 12 -8 15 -4 3
-25 31 -45 63 -102 156 -277 280 -503 356 -207 70 -412 102 -655 102 -334 0
-540 -91 -626 -275 -32 -67 -34 -173 -4 -200 11 -10 20 -23 20 -30 0 -27 65
-107 109 -133 38 -22 58 -27 116 -27 59 0 78 5 118 28 52 31 119 109 148 172
77 171 72 155 103 310 19 96 33 132 54 140 27 10 32 -9 17 -75 -8 -36 -24
-114 -36 -175 -38 -191 -74 -277 -153 -359 -153 -158 -392 -152 -504 13 -42
61 -62 119 -70 196 -5 49 -7 55 -14 35 -5 -17 -7 -7 -4 32 8 168 183 336 407
392 82 20 196 35 270 36 l56 0 46 96 c54 110 110 187 197 267 59 55 70 61 98
58 28 -4 8 27 -65 99 -178 174 -331 267 -554 338 -258 83 -565 86 -822 11
-167 -49 -355 -175 -447 -299 -102 -136 -152 -320 -121 -440 l9 -35 2 30 c2
28 3 27 11 -10 5 -22 11 -45 14 -52 2 -7 32 16 69 52 40 40 90 76 133 97 65
31 74 33 178 33 101 0 114 -2 167 -29 101 -51 180 -150 195 -244 4 -23 3 -33
-4 -29 -11 7 -23 -36 -23 -82 0 -42 -54 -142 -103 -192 -115 -115 -316 -129
-457 -30 -59 41 -144 137 -166 188 -27 63 -44 56 -111 -45 -111 -166 -148
-277 -141 -422 2 -50 8 -95 14 -98 5 -4 18 -32 28 -62 55 -159 131 -272 245
-362 119 -95 230 -141 389 -159 124 -15 234 -1 477 61 269 69 418 92 595 92
l146 0 34 66 c58 112 175 215 300 265 269 106 565 53 754 -137 40 -39 84 -92
98 -117 37 -64 68 -182 67 -254 l-1 -60 -8 45 c-5 25 -16 60 -25 77 -9 18 -14
43 -11 55 3 13 3 17 0 9 -4 -9 -15 2 -33 31 -84 144 -191 233 -354 295 -65 24
-85 27 -207 28 -120 0 -142 -3 -200 -24 -141 -54 -247 -136 -296 -233 -24 -48
-31 -73 -16 -64 11 6 256 -37 362 -64 299 -76 497 -180 638 -335 84 -91 154
-262 151 -366 l-1 -44 -8 51 c-10 66 -29 126 -40 119 -4 -2 -24 24 -44 58 -74
126 -215 247 -381 327 -251 122 -589 193 -910 193 -243 0 -330 -14 -685 -109
-142 -38 -148 -39 -320 -39 -167 0 -179 1 -260 29 -187 64 -294 140 -414 298
-87 113 -146 288 -146 428 0 61 -4 90 -12 92 -21 7 20 152 73 257 26 53 72
124 102 158 53 60 55 61 71 41 13 -14 20 -17 30 -9 11 9 9 25 -11 84 -15 44
-26 108 -30 165 -3 50 -10 92 -14 92 -14 0 -10 58 7 130 42 178 207 377 406
488 72 40 271 106 363 121 39 6 81 13 95 15 14 3 108 3 210 1 155 -3 202 -7
290 -28z m3306 -314 c-3 -8 -6 -162 -6 -343 l0 -328 -62 -4 -63 -3 0 345 c0
190 3 347 6 350 4 3 35 3 69 2 49 -3 60 -7 56 -19z m960 0 c-3 -8 -6 -163 -6
-344 0 -181 -4 -329 -8 -329 -4 0 -9 35 -10 77 -3 82 -7 96 -22 73 -9 -13 -10
-13 -10 0 0 13 -1 13 -10 0 -7 -11 -10 -12 -10 -2 0 10 -3 10 -15 -2 -10 -10
-15 -35 -15 -79 0 -43 -4 -66 -12 -70 -10 -3 -13 69 -13 342 -1 190 2 348 6
351 4 3 35 3 69 2 49 -3 60 -7 56 -19z m-614 -270 l-3 -288 155 2 c85 2 157 0
159 -5 2 -4 2 -31 -1 -60 l-4 -53 -209 1 c-115 1 -212 -1 -216 -3 -5 -3 -8
152 -8 344 l0 349 65 0 65 0 -3 -287z m994 138 c94 -159 97 -161 128 -98 8 18
44 79 79 137 l63 105 85 3 c81 2 83 1 63 -15 -22 -20 -29 -30 -167 -255 l-97
-157 0 -130 0 -131 -45 0 c-35 0 -43 3 -39 15 7 18 26 19 41 4 18 -18 33 0 33
39 l-1 37 -13 -30 c-8 -19 -15 -25 -20 -17 -4 7 -2 12 3 12 6 0 11 18 11 40 0
29 -4 40 -15 40 -10 0 -15 -11 -16 -37 l-1 -38 -8 30 c-25 91 -28 93 -29 22
-1 -52 2 -66 12 -61 9 5 9 4 0 -6 -6 -7 -9 -18 -6 -25 2 -8 -5 -19 -16 -25
-21 -11 -21 -11 -16 128 l6 139 -35 59 c-92 153 -224 349 -234 347 -7 -2 -12
2 -12 7 0 6 33 10 78 10 l79 0 89 -149z m869 127 c8 -26 204 -523 240 -610
l24 -58 -68 0 c-38 0 -71 -3 -74 -7 -2 -5 -2 -3 -1 4 2 7 -8 45 -22 85 l-24
73 -155 0 c-175 0 -153 11 -198 -99 -19 -45 -25 -54 -29 -38 -3 12 -1 23 5 25
7 2 7 9 -1 23 -6 10 -12 15 -12 9 -1 -5 -5 -1 -9 9 -7 19 -8 19 -13 -2 -4 -12
-3 -20 1 -18 4 3 13 1 21 -5 11 -6 6 -9 -17 -9 -26 0 -31 3 -27 18 5 14 4 15
-5 2 -6 -8 -11 -25 -11 -37 0 -17 7 -23 33 -26 24 -3 20 -4 -16 -5 -27 -1 -57
-7 -67 -12 -18 -10 -18 -9 -3 27 25 58 157 382 220 536 l55 137 73 0 c68 0 74
-2 80 -22z m2275 -1107 c80 -41 83 -46 43 -86 l-35 -35 -36 19 c-106 54 -212
28 -212 -51 0 -34 37 -73 78 -83 57 -14 178 -67 200 -88 37 -35 52 -80 43
-129 -7 -33 -9 -37 -10 -15 -2 42 -18 66 -39 60 -12 -3 -22 2 -25 11 -4 9 -13
16 -22 16 -18 0 -19 13 -4 43 7 12 8 19 4 15 -5 -4 -14 -3 -22 4 -8 6 -26 12
-41 14 -15 1 -21 0 -14 -3 6 -2 12 -11 12 -18 0 -8 8 -11 23 -8 19 4 20 3 4
-7 -9 -6 -27 -8 -39 -5 -14 5 -17 10 -8 15 8 5 7 9 -5 13 -9 4 -13 3 -10 -3 3
-6 -1 -10 -9 -10 -8 0 -18 -5 -22 -12 -5 -8 -2 -9 10 -5 9 4 22 2 29 -3 7 -6
21 -17 32 -25 11 -7 -29 3 -88 24 -138 49 -165 74 -182 164 -4 20 -11 37 -15
37 -13 0 10 72 33 104 11 15 43 39 71 53 44 21 62 24 131 20 58 -3 92 -10 125
-26z m-4261 -6 c19 -11 48 -37 65 -58 28 -35 31 -46 31 -105 0 -86 -31 -152
-88 -190 -36 -24 -53 -28 -146 -32 l-105 -5 -2 -40 c-1 -22 1 -76 5 -121 l6
-80 -55 4 c-30 3 -56 5 -57 6 -1 1 -3 147 -5 325 l-3 323 160 -4 c138 -3 165
-6 194 -23z m511 -87 c23 -62 67 -174 96 -248 29 -74 64 -164 77 -200 13 -36
28 -73 32 -84 7 -16 6 -17 -13 -7 -12 7 -22 18 -22 26 0 25 -41 105 -51 99 -5
-3 -9 2 -9 10 0 10 -6 13 -17 9 -12 -5 -15 -2 -10 10 4 12 2 14 -11 10 -15 -6
-15 -5 -3 10 8 10 11 20 7 24 -3 3 -6 0 -6 -8 0 -10 -2 -11 -8 -2 -5 8 -12 9
-22 2 -12 -7 -13 -11 -2 -18 11 -7 11 -9 -2 -14 -11 -4 -16 -1 -16 9 0 12 -7
15 -25 12 -22 -5 -25 -2 -20 16 5 19 5 19 -5 4 -8 -13 -24 -18 -56 -18 -25 0
-43 -3 -41 -7 3 -5 -15 -8 -39 -8 -29 0 -43 4 -40 12 6 15 -20 50 -30 40 -4
-4 -2 -7 4 -7 7 0 12 -5 12 -11 0 -6 -6 -9 -12 -6 -7 2 -25 -2 -39 -11 -19
-10 -25 -21 -22 -36 4 -15 2 -17 -5 -7 -7 9 -12 10 -16 2 -4 -6 -11 -9 -16 -6
-7 4 -39 -60 -54 -112 -6 -19 -34 -39 -43 -30 -2 2 36 102 83 223 48 120 105
267 128 326 l41 107 66 1 65 0 44 -112z m675 93 c56 -26 103 -76 115 -123 9
-33 8 -50 -10 -102 -26 -79 -42 -102 -90 -126 -46 -23 -63 -26 -36 -5 22 16
10 20 -14 5 -12 -8 -9 -15 19 -43 47 -49 172 -241 160 -246 -13 -4 -62 52 -83
94 -19 40 -51 76 -60 68 -6 -6 -10 13 -6 32 1 6 -1 7 -5 3 -11 -11 -37 20 -30
34 4 7 -4 0 -18 -17 -26 -31 -27 -48 -2 -39 8 3 11 13 8 22 -5 14 -4 15 8 3
12 -11 12 -15 -2 -23 -14 -10 -13 -16 11 -62 47 -91 50 -95 100 -99 l45 -3
-50 -2 -50 -1 -65 112 c-36 62 -65 117 -64 122 1 6 -26 10 -61 10 l-62 0 1
-122 1 -123 -35 2 c-30 1 -31 2 -7 5 l27 4 0 102 c0 70 -3 97 -10 87 -9 -13
-10 -13 -10 0 0 13 -1 13 -10 0 -7 -11 -10 -5 -10 23 0 38 -5 43 -28 28 -10
-6 -12 -37 -10 -129 2 -75 -1 -123 -7 -126 -7 -2 -10 110 -10 325 l0 329 155
0 c130 0 162 -3 195 -19z m601 2 c123 -41 212 -151 214 -264 0 -51 -11 -129
-19 -125 -3 2 -6 -8 -7 -22 -1 -37 -56 -122 -96 -151 l-33 -24 30 34 c17 19
36 37 43 42 15 10 16 31 0 21 -7 -4 -8 -3 -4 5 4 6 11 9 16 6 4 -3 13 8 18 25
7 19 7 32 1 36 -6 4 -6 11 2 20 8 9 8 14 1 14 -6 0 -15 -8 -21 -17 -7 -14 -9
-8 -7 22 2 22 1 30 -1 18 -2 -13 -11 -23 -19 -23 -8 0 -14 -7 -14 -15 0 -30
-43 -95 -76 -116 -19 -11 -32 -24 -29 -29 3 -4 -1 -10 -9 -13 -22 -9 -192 -11
-205 -3 -7 4 -11 41 -12 94 0 62 -3 81 -9 65 -12 -28 -40 -30 -40 -3 0 11 -4
20 -10 20 -6 0 -10 -26 -10 -59 0 -32 -3 -86 -6 -120 l-7 -61 124 -2 c138 -1
120 -6 -41 -10 l-106 -3 8 63 c9 74 3 536 -7 570 l-7 22 144 0 c108 0 157 -4
194 -17z m648 -35 c10 -29 33 -91 51 -138 68 -173 175 -463 172 -466 -9 -9
-27 20 -52 84 -16 40 -34 77 -42 84 -11 9 -12 7 -7 -8 5 -15 4 -16 -4 -4 -8
10 -8 18 -1 27 17 20 1 50 -34 64 -47 17 -56 18 -51 6 10 -30 -13 -38 -123
-40 -92 -2 -110 0 -105 12 3 9 1 12 -6 7 -7 -4 -12 -2 -12 5 0 8 -6 6 -18 -4
-13 -12 -21 -14 -29 -6 -7 7 -14 0 -23 -23 -6 -18 -25 -63 -41 -101 -34 -79
-35 -87 -11 -88 9 -1 1 -5 -18 -9 -19 -5 -36 -7 -37 -6 -3 3 84 238 147 401
17 44 45 119 63 168 l32 87 65 0 65 0 19 -52z m779 5 c-6 -49 -22 -75 -168
-276 -33 -45 -78 -109 -100 -141 -32 -46 -47 -60 -67 -60 -15 -1 -24 2 -21 7
3 5 13 7 23 4 14 -3 17 1 16 19 0 13 -5 22 -11 20 -5 -2 -9 -8 -8 -13 1 -5 -5
-10 -13 -10 -7 0 -14 4 -14 9 0 4 5 8 11 8 5 0 8 4 5 8 -2 4 7 9 20 10 22 2
24 -1 19 -21 -6 -21 -5 -21 14 3 11 14 22 34 23 45 2 11 9 19 16 17 17 -3 15
15 -3 22 -9 3 -12 12 -9 23 3 10 -1 7 -9 -7 -9 -14 -13 -28 -11 -32 3 -5 0 -8
-5 -8 -6 0 -11 5 -11 11 0 18 -21 -2 -51 -49 -15 -25 -26 -49 -23 -54 3 -5 0
-7 -7 -6 -7 2 -19 -10 -28 -27 -9 -16 -19 -32 -22 -35 -4 -3 -7 -17 -7 -32 l1
-28 208 0 209 0 0 24 c0 20 -6 24 -46 30 -26 3 -89 6 -140 6 -100 0 -135 7
-112 21 7 5 83 9 169 9 l157 0 -6 -47 c-2 -27 -5 -49 -6 -50 -1 -1 -103 -3
-228 -5 l-227 -3 6 27 c3 14 0 34 -5 44 -8 15 -6 26 12 49 13 16 47 66 77 110
63 93 82 119 167 233 34 46 62 86 62 88 0 3 -70 4 -155 2 l-155 -3 0 30 c0 17
-3 40 -6 53 l-6 22 236 0 236 0 -7 -47z m553 38 c-4 -5 -7 -28 -8 -50 l-1 -41
-148 0 -147 0 0 -85 0 -85 135 0 c119 0 134 -2 129 -16 -3 -9 -6 -31 -6 -50
l0 -34 -130 0 -130 0 0 -90 0 -90 153 0 152 0 -3 -50 -4 -50 -176 2 -177 2
171 3 170 3 -4 28 -4 28 -131 3 c-74 1 -137 7 -144 13 -8 6 -13 34 -13 74 0
51 -3 62 -14 58 -8 -3 -23 3 -34 14 -19 19 -19 19 -26 -41 -12 -114 -8 -175
12 -181 10 -3 8 -4 -7 -3 l-24 2 -2 295 c-2 162 -6 307 -10 323 l-7 27 217 0
c127 0 214 -4 211 -9z m854 0 c0 -6 -4 -12 -9 -15 -5 -3 -9 -60 -9 -126 l-1
-120 141 0 141 0 -5 135 -5 135 68 0 69 0 -5 -27 c-4 -26 -14 -393 -15 -550 0
-40 -3 -73 -7 -73 -5 0 -7 73 -5 163 l3 162 -46 11 c-32 7 -45 7 -44 0 4 -34
-2 -35 -133 -39 l-133 -3 138 -2 c75 -1 137 -5 137 -9 0 -5 -67 -7 -150 -5
l-150 3 0 -140 c0 -78 -3 -141 -7 -141 -5 0 -7 62 -5 137 2 95 -1 133 -8 123
-7 -11 -10 -7 -10 20 l0 35 -18 -35 -17 -35 -5 45 -5 45 -8 -34 c-12 -58 -9
-289 5 -293 7 -3 3 -7 -9 -10 l-22 -6 0 305 c-1 168 -4 316 -7 329 -6 24 -5
24 65 24 39 0 71 -4 71 -9z m-376 -434 c31 -117 -69 -179 -211 -131 -26 9 -55
22 -64 30 -13 12 -18 11 -38 -10 l-22 -24 33 -20 c19 -12 54 -30 78 -42 25
-11 34 -17 20 -14 -14 4 -57 23 -96 43 l-72 37 38 44 c36 42 39 44 57 29 56
-50 148 -72 207 -49 44 16 72 99 44 129 -11 10 -10 11 4 6 9 -4 19 -16 22 -28z
m-7340 -459 c7 -49 46 -151 54 -144 3 3 17 -14 33 -39 55 -87 156 -142 330
-180 210 -46 309 -87 435 -177 151 -107 235 -227 280 -396 14 -53 19 -104 7
-72 -3 8 -14 39 -25 68 -11 29 -24 50 -29 47 -5 -4 -6 0 -3 8 3 8 -2 17 -10
20 -9 4 -16 16 -16 28 0 12 -3 19 -6 16 -4 -4 -27 19 -51 49 -53 69 -83 99
-150 151 -119 93 -229 138 -468 194 -77 18 -166 46 -197 62 -129 66 -227 223
-228 365 0 34 3 42 19 42 14 0 20 -10 25 -42z m3058 -198 c62 -24 120 -69 100
-77 -8 -3 -27 -20 -44 -39 -28 -30 -33 -33 -48 -19 -26 24 -87 45 -130 45 -84
0 -126 -47 -100 -111 15 -35 31 -44 158 -89 68 -24 103 -43 132 -71 39 -38 40
-41 40 -104 0 -36 -7 -81 -14 -100 -21 -49 -28 -44 -11 6 19 52 19 78 1 120
-14 33 -56 81 -56 64 0 -4 -6 -2 -14 4 -7 6 -27 8 -45 5 -19 -4 -31 -2 -31 4
0 6 -6 12 -12 15 -7 2 -1 2 15 0 43 -7 31 15 -15 28 -24 6 -51 15 -60 20 -29
15 -32 10 -7 -10 l24 -20 -23 6 c-12 3 -25 9 -28 14 -9 15 -24 10 -18 -6 5
-11 2 -14 -12 -8 -11 3 -22 11 -26 17 -6 8 -11 7 -17 -3 -5 -7 -14 -10 -20 -7
-6 4 -11 5 -11 2 0 -3 17 -14 38 -25 20 -11 31 -20 24 -21 -52 -1 -118 73
-137 157 -15 64 -5 105 38 152 63 68 203 91 309 51z m2961 -8 c26 -12 63 -33
82 -48 l34 -26 -42 -40 c-33 -31 -45 -37 -57 -29 -52 38 -78 50 -127 56 -126
16 -227 -44 -271 -160 l-11 -30 2 30 c1 19 -3 29 -10 28 -7 -2 -10 4 -7 12 4
8 1 15 -5 15 -6 0 -11 -4 -11 -10 0 -19 -19 -10 -26 12 -6 19 -9 15 -26 -28
-16 -40 -19 -67 -15 -149 5 -108 -4 -102 -24 17 -12 74 -12 79 14 149 15 39
38 86 51 103 32 42 95 85 159 108 72 26 221 20 290 -10z m-2571 -125 l-4 -143
134 -3 c74 -1 146 1 161 4 l27 7 0 123 c0 73 -4 126 -10 130 -24 15 6 25 72
25 60 0 69 -2 64 -16 -3 -9 -6 -160 -6 -336 0 -177 -2 -319 -4 -317 -2 2 -7
81 -10 174 -3 94 -8 182 -12 198 -8 32 -30 36 -39 6 -6 -17 -9 -19 -16 -8 -5
8 -6 23 -3 34 4 16 3 17 -5 5 -5 -8 -7 -27 -4 -42 4 -20 1 -29 -11 -34 -9 -3
-14 -10 -11 -14 3 -4 -1 -10 -8 -13 -21 -8 -112 3 -115 13 -4 11 -55 13 -91 3
-23 -6 -23 -7 -5 -14 14 -5 7 -8 -23 -8 -63 -1 -93 13 -94 46 l-2 28 -4 -29
-5 -29 -12 24 c-7 14 -20 23 -31 22 -11 -1 -23 4 -27 10 -4 7 -8 -79 -8 -190
0 -125 -4 -203 -10 -203 -9 0 -20 677 -11 686 2 2 32 4 65 4 l61 0 -3 -143z
m984 123 c1 -8 25 -73 54 -145 28 -71 70 -177 92 -235 23 -58 56 -143 76 -190
19 -47 36 -90 39 -97 3 -7 -2 -10 -15 -7 -10 3 -19 11 -19 17 -1 19 -50 146
-81 211 l-29 59 -16 -24 c-21 -30 -22 -21 -1 19 12 25 13 36 3 54 -18 33 -42
49 -51 35 -6 -9 -10 -9 -17 1 -6 11 -10 9 -14 -7 -3 -12 -2 -19 1 -17 4 2 8
-6 9 -17 1 -12 5 -41 9 -64 l6 -43 -110 0 c-71 0 -113 4 -118 11 -13 22 23 29
119 25 75 -4 98 -2 94 7 -67 189 -101 277 -106 277 -6 0 -67 -157 -91 -232
-13 -44 -37 -66 -26 -25 3 15 1 29 -6 33 -6 4 -8 3 -5 -4 4 -5 4 -18 0 -28 -6
-16 -7 -16 -14 2 -7 18 -8 18 -15 -3 -8 -28 -12 -28 -31 -5 -14 16 -14 16 -9
0 3 -10 1 -18 -4 -18 -6 0 -10 -6 -10 -13 0 -8 -6 -27 -14 -43 -39 -79 -83
-193 -74 -196 5 -2 -4 -8 -20 -14 l-29 -11 40 101 c22 56 52 133 68 171 15 39
58 149 94 245 37 96 69 178 72 182 2 5 37 8 75 6 54 -2 72 -7 74 -18z m771 5
c36 -11 62 -28 91 -59 54 -58 68 -106 48 -166 -9 -29 -14 -37 -15 -22 -1 31
-38 29 -74 -4 -20 -19 -26 -32 -22 -47 4 -14 3 -18 -3 -9 -6 10 -13 8 -27 -8
-10 -11 -23 -20 -29 -20 -6 0 -28 -9 -49 -20 -31 -17 -37 -17 -37 -5 0 12 -14
15 -65 15 -62 0 -66 1 -76 27 -6 15 -15 30 -21 34 -5 3 -13 31 -18 60 l-8 54
-1 -45 c-1 -35 -4 -42 -12 -30 -8 12 -9 10 -4 -7 3 -12 1 -24 -5 -28 -5 -3
-10 2 -10 11 0 10 -2 15 -5 12 -3 -2 -8 -96 -11 -209 -3 -112 -9 -207 -13
-211 -3 -4 -6 150 -6 343 l0 349 161 0 c113 0 175 -4 211 -15z m1265 -129 l-4
-144 162 -1 161 -2 -3 146 -3 145 67 0 c63 0 91 -11 68 -25 -6 -4 -11 -123
-12 -328 -2 -239 -3 -270 -5 -119 -2 123 -7 202 -13 202 -6 0 -11 10 -11 23
l-2 22 -4 -22 c-2 -13 -7 -23 -9 -23 -11 0 -31 27 -42 55 -10 27 -11 25 -10
-29 1 -51 -2 -61 -23 -77 -27 -21 -115 -27 -103 -7 5 8 -9 9 -55 5 -86 -9
-112 -17 -104 -31 4 -6 -1 -5 -11 3 -14 12 -19 12 -25 2 -6 -10 -10 -9 -14 3
-3 8 -2 16 4 18 5 2 0 9 -12 16 -17 11 -20 11 -13 0 6 -10 4 -10 -9 1 -9 7
-17 20 -17 27 0 8 -10 14 -24 14 -18 0 -26 7 -29 23 -2 12 -5 -83 -6 -210 -1
-148 -5 -233 -11 -233 -6 0 -10 116 -10 329 0 181 -3 336 -6 345 -5 14 4 16
62 16 l69 0 -3 -144z m-8868 21 c177 -111 430 -208 631 -242 242 -41 431 -43
875 -5 514 43 834 13 1178 -112 345 -125 589 -315 768 -598 19 -30 32 -61 29
-68 -3 -7 0 -10 5 -7 9 6 14 -8 11 -28 -1 -4 8 -26 18 -50 23 -51 52 -139 48
-144 -2 -2 -12 16 -22 39 -41 97 -57 128 -65 123 -9 -6 -40 33 -40 50 1 5 8
-2 16 -17 8 -16 17 -28 20 -28 22 0 -87 177 -153 249 -35 39 -63 53 -63 31 0
-5 -3 -9 -7 -8 -5 1 -18 -3 -31 -11 -23 -12 -23 -12 18 -40 47 -32 190 -159
190 -169 0 -4 -33 24 -72 61 -136 127 -351 234 -569 282 -151 34 -256 45 -420
45 -169 0 -292 -12 -524 -51 -391 -66 -425 -70 -605 -71 -123 -1 -205 4 -274
16 -55 9 -103 19 -106 21 -4 2 -42 13 -85 25 -43 12 -129 45 -189 74 -241 115
-404 261 -555 497 -32 52 -78 115 -100 140 -70 79 -59 78 73 -4z m8065 -351
c30 -48 82 -91 127 -106 47 -16 159 -8 202 14 29 15 32 21 32 64 0 26 5 54 10
62 8 11 10 -7 8 -60 l-3 -75 -40 -20 c-56 -27 -163 -32 -222 -10 -100 39 -149
111 -158 236 l-5 74 14 -72 c8 -40 24 -88 35 -107z m491 155 c0 -6 -5 -13 -11
-17 -8 -4 -10 -28 -7 -68 3 -34 2 -72 -2 -86 -5 -16 -8 5 -9 63 -1 90 -8 102
-40 73 -23 -19 -69 -28 -73 -14 -2 6 -29 13 -60 16 l-55 4 1 -28 c1 -27 5 -29
46 -34 l45 -6 -60 -4 -60 -5 0 58 0 57 143 0 c82 0 142 -4 142 -9z m-5755
-691 c240 -53 427 -150 574 -298 42 -42 87 -97 100 -122 l24 -45 -36 35 c-19
19 -33 38 -30 42 2 5 -3 8 -11 8 -8 0 -18 5 -22 12 -5 7 -2 9 7 4 8 -4 -23 29
-68 73 -45 45 -87 81 -93 81 -6 0 -8 -4 -5 -10 3 -5 0 -7 -9 -4 -8 3 -12 12
-10 19 3 7 -4 18 -15 24 -17 10 -20 9 -15 -4 3 -8 11 -12 18 -8 6 3 8 2 3 -2
-9 -11 -48 -14 -41 -4 2 4 0 10 -6 14 -5 3 -10 -1 -10 -9 0 -20 -14 -21 -29
-2 -9 11 -9 15 1 19 7 3 0 6 -15 6 -16 1 -27 6 -26 14 3 27 -2 36 -16 31 -11
-4 -13 -2 -10 9 7 16 -20 31 -37 20 -7 -4 -8 -1 -3 8 8 12 6 12 -8 1 -14 -12
-19 -12 -32 2 -9 9 -22 16 -28 16 -7 0 -4 -7 6 -14 17 -13 16 -15 -10 -25 -25
-10 -22 -11 24 -8 44 3 49 2 37 -10 -11 -11 -30 -13 -77 -9 -34 3 -87 2 -117
-2 l-55 -8 50 -8 c74 -11 79 -17 10 -12 -33 3 -53 2 -45 -1 8 -3 18 -10 21
-15 3 -5 72 -11 152 -14 146 -5 181 -9 172 -23 -2 -4 34 -20 80 -36 47 -15 85
-32 85 -36 0 -12 -17 -11 -25 0 -6 11 -142 53 -223 70 -29 6 -116 11 -192 11
-232 0 -395 -42 -715 -183 -93 -41 -201 -85 -239 -96 -156 -48 -335 -46 -496
5 -164 51 -284 128 -435 277 -60 60 -122 118 -138 129 -40 28 -27 33 22 9 67
-35 143 -59 206 -66 139 -17 424 1 585 36 115 25 216 49 239 56 14 4 14 3 1
-6 -13 -9 -11 -11 7 -11 12 0 29 3 38 6 13 6 14 9 3 16 -8 5 0 6 23 3 20 -4
61 0 95 9 32 8 102 22 154 30 52 8 106 17 120 20 14 2 106 3 205 1 139 -2 203
-8 280 -25z m315 -404 c96 -16 215 -57 273 -93 51 -32 42 -39 -18 -12 -43 19
-60 21 -179 16 -72 -3 -144 -8 -161 -11 -16 -4 -10 1 15 9 27 9 88 16 152 18
109 2 124 5 69 12 -18 2 -39 9 -46 15 -8 7 -19 9 -26 5 -6 -4 -14 -3 -18 3
-10 17 -187 35 -271 28 -142 -12 -174 -18 -156 -28 24 -13 6 -33 -50 -54 -24
-9 -44 -21 -44 -26 0 -4 -11 -6 -25 -2 -15 4 -25 2 -25 -5 0 -6 -7 -11 -15
-11 -8 0 -22 -18 -31 -40 -10 -25 -23 -40 -33 -40 -21 0 -61 -83 -61 -127 0
-25 6 -33 28 -41 20 -7 31 -6 39 3 7 7 9 16 5 19 -3 4 2 4 11 0 12 -4 17 -2
15 7 -2 9 4 13 16 11 10 -2 16 0 13 5 -3 4 13 19 34 33 24 14 37 30 34 38 -2
7 0 10 5 7 6 -4 48 18 93 47 84 55 129 78 150 78 7 0 -18 -15 -55 -34 -79 -40
-175 -107 -270 -189 -91 -78 -186 -141 -256 -169 -48 -19 -75 -23 -172 -22
-127 0 -200 20 -317 85 -32 18 -86 47 -120 64 l-62 32 86 7 c162 12 289 54
523 174 74 38 141 67 149 64 9 -3 11 0 6 8 -6 10 -4 12 8 7 10 -4 16 -2 14 4
-1 6 15 12 35 14 20 2 50 10 65 18 142 72 389 103 573 73z m215 -218 c-22 -5
-50 -10 -62 -11 -12 -1 -20 -4 -17 -6 2 -2 -18 -18 -44 -35 -73 -48 -147 -131
-214 -241 -140 -228 -222 -270 -498 -258 l-132 6 72 36 c39 20 102 61 138 91
37 30 70 54 74 52 5 -1 7 3 6 9 -2 6 5 13 16 14 10 2 24 9 30 15 8 8 6 9 -6 5
-25 -10 -22 -4 14 30 18 17 29 24 24 18 -4 -7 -4 -13 0 -13 13 0 54 43 54 55
0 15 36 48 55 51 7 1 31 16 52 32 107 85 307 161 418 160 60 0 60 0 20 -10z"/>
<path d="M6000 4170 l0 -40 -40 0 c-31 0 -40 4 -40 17 0 14 -2 14 -20 -2 -13
-12 -20 -31 -20 -57 0 -21 -4 -38 -10 -38 -5 0 -10 -18 -10 -40 0 -29 -4 -40
-15 -40 -11 0 -15 -11 -15 -40 0 -22 -4 -40 -9 -40 -5 0 -12 -36 -16 -80 -5
-54 -11 -80 -20 -80 -13 0 -25 -83 -25 -179 0 -32 -4 -61 -9 -67 -5 -5 -12
-85 -15 -179 -3 -93 -9 -246 -15 -340 -5 -93 -10 -377 -10 -631 -1 -375 -4
-478 -17 -554 -20 -116 -53 -205 -103 -278 -43 -63 -137 -162 -146 -154 -3 3
-5 -2 -5 -12 0 -9 -4 -15 -9 -11 -12 7 -74 -29 -65 -38 3 -3 -4 -3 -17 0 -17
5 -20 3 -14 -7 5 -8 4 -11 -3 -6 -6 3 -37 -7 -69 -23 -32 -17 -77 -38 -100
-47 -36 -15 -43 -22 -43 -46 l0 -28 930 0 930 0 1 23 c3 62 -10 81 -48 72 -14
-3 -23 -1 -23 6 0 6 -7 9 -15 5 -8 -3 -15 -1 -15 4 0 6 -9 10 -19 10 -34 0
-180 61 -234 97 -58 39 -152 133 -180 179 -43 70 -79 162 -97 247 -16 80 -19
161 -24 632 -4 297 -11 592 -16 655 -5 63 -14 203 -20 310 -6 113 -14 196 -20
198 -5 2 -10 21 -10 43 0 21 -4 39 -10 39 -6 0 -10 47 -10 120 0 73 -4 120
-10 120 -5 0 -10 18 -10 40 0 33 -3 40 -20 40 -18 0 -20 7 -20 80 l0 80 -50 0
-50 0 0 40 0 40 -40 0 -40 0 0 -40z"/>
<path d="M3195 6503 c-25 -6 -84 -49 -107 -77 -29 -34 -51 -113 -43 -153 3
-19 9 -32 12 -29 4 4 18 -15 32 -41 51 -93 153 -134 246 -99 50 20 98 64 116
110 7 17 18 34 23 38 6 4 11 34 11 66 0 48 -5 66 -28 99 -41 59 -110 93 -183
92 -33 -1 -68 -4 -79 -6z"/>
<path d="M5089 6093 c-15 -2 -51 -18 -80 -36 -41 -25 -60 -45 -81 -86 -32 -61
-39 -145 -13 -155 8 -3 15 -13 15 -23 0 -21 36 -82 59 -101 65 -51 164 -68
234 -39 47 20 105 89 118 142 6 24 15 43 19 40 10 -6 20 20 20 53 0 31 -33
108 -58 135 -42 47 -160 82 -233 70z"/>
<path d="M1565 4939 c-88 -48 -126 -95 -150 -185 -14 -56 -12 -104 6 -104 5 0
22 -29 38 -63 32 -72 72 -108 145 -133 101 -35 219 10 272 103 15 26 37 64 50
84 30 45 30 90 0 154 -51 110 -121 156 -246 162 -62 3 -82 0 -115 -18z"/>
<path d="M4436 5118 c-72 -71 -156 -188 -171 -238 -4 -14 -11 -29 -15 -35 -4
-5 -10 -18 -14 -29 -5 -15 -2 -17 13 -13 29 7 176 -10 293 -34 136 -28 247
-64 332 -106 37 -19 70 -33 71 -31 2 2 -21 33 -51 68 -74 86 -247 317 -309
413 -27 42 -56 76 -63 77 -7 0 -45 -33 -86 -72z"/>
<path d="M2793 4975 c-83 -25 -155 -83 -245 -194 -26 -32 -27 -50 -5 -78 5 -7
6 -13 1 -13 -5 0 0 -8 12 -18 12 -9 35 -38 52 -63 93 -139 252 -188 389 -119
59 30 111 86 127 138 4 12 16 27 27 32 15 9 19 22 19 68 0 181 -191 306 -377
247z"/>
<path d="M9180 5320 c0 -5 -21 -60 -46 -122 -69 -170 -75 -153 60 -153 111 0
115 1 110 20 -4 11 -26 70 -50 132 -24 61 -44 116 -44 122 0 6 -7 11 -15 11
-8 0 -15 -4 -15 -10z"/>
<path d="M7049 4264 c-1 -5 -1 -12 0 -16 0 -3 1 -47 2 -97 l1 -91 69 0 c85 0
111 12 138 62 28 53 27 71 -8 110 -28 32 -33 33 -115 37 -47 1 -87 -1 -87 -5z"/>
<path d="M7652 4132 c-18 -48 -40 -102 -48 -120 -24 -56 -23 -57 89 -57 l103
0 -34 95 c-18 52 -39 110 -46 129 -7 19 -17 36 -22 38 -5 2 -24 -36 -42 -85z"/>
<path d="M8242 4169 l3 -104 55 -3 c65 -4 120 10 144 37 10 10 20 43 23 72 8
79 -10 92 -133 97 l-95 4 3 -103z"/>
<path d="M8869 4265 c-3 0 -4 -414 -1 -427 3 -14 15 -18 51 -18 162 0 261 107
249 270 -5 70 -38 119 -100 151 -37 19 -78 24 -199 24z"/>
<path d="M9594 4102 c-23 -64 -44 -124 -48 -132 -5 -13 9 -15 94 -15 55 0 100
3 100 6 0 24 -86 253 -96 256 -5 2 -28 -50 -50 -115z"/>
<path d="M9150 3059 l0 -111 99 4 c110 3 130 13 157 77 19 45 17 71 -5 98 -28
34 -63 43 -162 43 l-89 0 0 -111z"/>
<path d="M1814 3065 c11 -8 17 -15 13 -15 -12 0 23 -61 39 -67 7 -3 14 -10 14
-17 0 -18 90 -127 100 -121 6 3 7 0 4 -8 -12 -33 226 -220 370 -290 193 -93
382 -135 483 -106 l43 12 0 78 c0 45 -4 79 -10 79 -5 0 -33 18 -62 40 -29 22
-61 40 -70 40 -10 0 -18 5 -18 10 0 17 -122 68 -180 76 -30 4 -64 11 -75 16
-18 8 -18 8 3 4 12 -2 20 0 16 5 -3 5 -16 9 -29 9 -13 0 -31 3 -41 7 -16 6
-16 7 2 15 12 5 5 5 -17 2 -22 -3 -39 -1 -43 5 -4 6 -16 16 -28 22 -15 8 -19
8 -14 0 10 -16 -2 -14 -48 8 -73 35 -169 71 -188 71 -10 0 -18 4 -18 9 0 5
-15 14 -32 21 -18 6 -45 18 -61 26 -15 9 -32 12 -39 8 -7 -4 -8 -3 -4 4 4 7 1
12 -8 12 -10 0 -13 -8 -10 -27 3 -20 2 -24 -5 -13 -5 8 -7 18 -4 24 4 5 -2 7
-13 3 -18 -7 -18 -6 -1 7 15 12 15 15 3 26 -9 6 -21 8 -27 4 -7 -4 -9 -3 -6 2
3 6 -9 15 -26 22 -29 10 -30 10 -13 -3z"/>
<path d="M2715 2120 c23 -24 32 -27 49 -19 19 9 20 9 4 -4 -22 -18 -23 -31 -2
-23 8 3 12 2 9 -4 -7 -11 53 -66 67 -62 5 1 7 -2 4 -6 -6 -10 104 -92 123 -92
5 0 14 -6 18 -13 11 -19 73 -48 86 -40 6 3 7 1 3 -5 -7 -12 -6 -13 32 -17 13
-1 28 -7 35 -14 6 -6 35 -11 64 -11 l53 0 0 41 c0 32 -6 47 -31 71 -19 19 -28
37 -24 47 3 8 3 13 0 9 -3 -3 -38 12 -77 33 -40 22 -91 41 -119 45 -27 4 -49
10 -49 13 0 9 -61 31 -86 31 -11 0 -53 11 -94 25 -96 31 -100 31 -65 -5z"/>
<path d="M3751 1483 c-1 -8 -16 -13 -38 -13 -52 0 -84 -10 -76 -23 4 -7 0 -8
-11 -4 -10 4 -22 4 -27 1 -10 -6 56 -46 79 -47 6 0 12 -3 12 -7 0 -11 43 -27
116 -45 125 -29 114 -31 114 20 0 37 -3 45 -18 45 -10 0 -22 4 -27 9 -6 5 -33
16 -62 25 -30 10 -54 24 -56 34 -3 9 -5 11 -6 5z"/>
<path d="M4970 1616 c-28 -11 -31 -14 -15 -18 17 -3 16 -5 -7 -10 -16 -3 -25
-1 -21 5 8 13 -28 1 -105 -35 -50 -23 -62 -33 -57 -46 5 -13 3 -14 -6 -5 -12
12 -13 12 -68 -35 -31 -26 -32 -29 -17 -45 10 -9 13 -17 7 -17 -15 0 -14 -93
1 -108 17 -17 43 -15 59 5 10 11 10 14 2 9 -7 -4 -13 -3 -13 2 0 6 7 12 15 16
9 3 12 12 9 23 -4 13 -3 14 3 5 8 -10 12 -10 22 2 7 8 9 21 5 27 -4 7 -3 9 4
5 6 -3 20 11 33 31 13 21 27 40 31 41 4 2 8 7 8 11 0 8 87 101 95 101 2 0 21
11 41 25 40 27 30 31 -26 11z"/>
<path d="M4418 1221 c-18 -15 -59 -45 -91 -66 -32 -20 -57 -38 -55 -40 8 -8
145 -11 182 -3 23 4 54 10 70 13 16 2 31 7 35 11 3 4 -7 4 -24 0 -27 -6 -28
-5 -13 7 16 13 15 16 -12 42 -16 16 -32 37 -36 47 -7 25 -18 23 -56 -11z"/>
</g>
</svg>
